<?xml version="1.0" encoding="UTF-8" standalone="no"?>
<!DOCTYPE svg PUBLIC "-//W3C//DTD SVG 1.1//EN"
 "http://www.w3.org/Graphics/SVG/1.1/DTD/svg11.dtd">
<!-- Generated by graphviz version 2.27.20101213.0545 (20101213.0545)
 -->
<!-- Title: DelegateAcceptAuth Pages: 1 -->
<svg width="656pt" height="81pt"
 viewBox="0.00 0.00 656.00 81.23" xmlns="http://www.w3.org/2000/svg" xmlns:xlink="http://www.w3.org/1999/xlink">
<g id="graph1" class="graph" transform="scale(1 1) rotate(0) translate(4 77.234)">
<title>DelegateAcceptAuth</title>
<polygon fill="white" stroke="white" points="-4,5 -4,-77.234 653,-77.234 653,5 -4,5"/>
<!-- Start -->
<!-- AuthComp -->
<g id="node4" class="node"><title>AuthComp</title>
<polygon fill="#fdefe3" stroke="#c00000" points="348,-48.234 250,-48.234 250,-8.23398 348,-8.23398 348,-48.234"/>
<text text-anchor="middle" x="299" y="-31.634" font-family="Helvetica,sans-Serif" font-size="14.00">Auth</text>
<text text-anchor="middle" x="299" y="-15.634" font-family="Helvetica,sans-Serif" font-size="14.00">Component</text>
</g>
<!-- Start&#45;&gt;AuthComp -->
<g id="edge3" class="edge"><title>Start&#45;&gt;AuthComp</title>
<path fill="none" stroke="black" d="M54.0748,-28.234C97.1107,-28.234 182.142,-28.234 239.791,-28.234"/>
<polygon fill="black" stroke="black" points="239.864,-31.7341 249.863,-28.234 239.863,-24.7341 239.864,-31.7341"/>
<text text-anchor="middle" x="152" y="-30.634" font-family="Times,serif" font-size="14.00">Authorization: Basic VTpQ</text>
</g>
<!-- AuthComp&#45;&gt;Start -->
<g id="edge9" class="edge"><title>AuthComp&#45;&gt;Start</title>
<path fill="none" stroke="black" d="M249.934,-12.6562C243.944,-11.2496 237.868,-10.0499 232,-9.23398 161.567,0.55976 141.697,4.87673 72,-9.23398 69.1948,-9.80192 66.3471,-10.5503 63.5169,-11.4218"/>
<polygon fill="black" stroke="black" points="62.3066,-8.13733 54.0489,-14.7751 64.6436,-14.7357 62.3066,-8.13733"/>
<text text-anchor="middle" x="152" y="-11.634" font-family="Times,serif" font-size="14.00">200 Okay</text>
</g>
<!-- Service -->
<g id="node6" class="node"><title>Service</title>
<polygon fill="#d1ebf1" stroke="#1f477d" points="648,-48.234 554,-48.234 554,-8.23398 648,-8.23398 648,-48.234"/>
<text text-anchor="middle" x="601" y="-31.634" font-family="Helvetica,sans-Serif" font-size="14.00">OpenStack</text>
<text text-anchor="middle" x="601" y="-15.634" font-family="Helvetica,sans-Serif" font-size="14.00">Service</text>
</g>
<!-- AuthComp&#45;&gt;Service -->
<g id="edge5" class="edge"><title>AuthComp&#45;&gt;Service</title>
<path fill="none" stroke="black" d="M348.194,-28.234C401.691,-28.234 487.101,-28.234 543.616,-28.234"/>
<polygon fill="black" stroke="black" points="543.818,-31.7341 553.818,-28.234 543.818,-24.7341 543.818,-31.7341"/>
<text text-anchor="middle" x="451" y="-60.634" font-family="Times,serif" font-size="14.00">Authorization: Basic dTpw</text>
<text text-anchor="middle" x="451" y="-45.634" font-family="Times,serif" font-size="14.00">X&#45;Authorization: Proxy U</text>
<text text-anchor="middle" x="451" y="-30.634" font-family="Times,serif" font-size="14.00">X&#45;Identity&#45;Status: Confirmed</text>
</g>
<!-- Service&#45;&gt;AuthComp -->
<g id="edge7" class="edge"><title>Service&#45;&gt;AuthComp</title>
<path fill="none" stroke="black" d="M553.774,-12.7435C547.845,-11.2995 541.819,-10.067 536,-9.23398 461.207,1.47328 440.836,1.17187 366,-9.23398 363.341,-9.6037 360.639,-10.0522 357.922,-10.5631"/>
<polygon fill="black" stroke="black" points="357.121,-7.15517 348.066,-12.6562 358.575,-14.0025 357.121,-7.15517"/>
<text text-anchor="middle" x="451" y="-11.634" font-family="Times,serif" font-size="14.00">200 Okay</text>
</g>
</g>
</svg>
