<?xml version="1.0" encoding="UTF-8" standalone="no"?>
<!DOCTYPE svg PUBLIC "-//W3C//DTD SVG 1.1//EN"
 "http://www.w3.org/Graphics/SVG/1.1/DTD/svg11.dtd">
<!-- Generated by graphviz version 2.27.20101213.0545 (20101213.0545)
 -->
<!-- Title: Mapper Pages: 1 -->
<svg width="174pt" height="264pt"
 viewBox="0.00 0.00 174.00 264.00" xmlns="http://www.w3.org/2000/svg" xmlns:xlink="http://www.w3.org/1999/xlink">
<g id="graph1" class="graph" transform="scale(1 1) rotate(0) translate(4 260)">
<title>Mapper</title>
<polygon fill="white" stroke="white" points="-4,5 -4,-260 171,-260 171,5 -4,5"/>
<!-- Start -->
<!-- Mapper -->
<g id="node4" class="node"><title>Mapper</title>
<polygon fill="#ebf1de" stroke="#687b37" points="119,-184 49,-184 49,-148 119,-148 119,-184"/>
<text text-anchor="middle" x="84" y="-161.4" font-family="Helvetica,sans-Serif" font-size="14.00">Mapper</text>
</g>
<!-- Start&#45;&gt;Mapper -->
<g id="edge3" class="edge"><title>Start&#45;&gt;Mapper</title>
<path fill="none" stroke="black" d="M84,-219.831C84,-212.131 84,-202.974 84,-194.417"/>
<polygon fill="black" stroke="black" points="87.5001,-194.413 84,-184.413 80.5001,-194.413 87.5001,-194.413"/>
</g>
<!-- Auths -->
<g id="node6" class="node"><title>Auths</title>
<polygon fill="white" stroke="white" points="166,-112 0,-112 0,-76 166,-76 166,-112"/>
<polygon fill="#fdefe3" stroke="#fdefe3" points="8,-81 8,-106 59,-106 59,-81 8,-81"/>
<polygon fill="none" stroke="#c00000" points="8,-81 8,-106 59,-106 59,-81 8,-81"/>
<text text-anchor="start" x="13.5" y="-90.2333" font-family="Helvetica,sans-Serif" font-size="14.00">Auth1</text>
<polygon fill="#fdefe3" stroke="#fdefe3" points="59,-81 59,-106 109,-106 109,-81 59,-81"/>
<polygon fill="none" stroke="#c00000" points="59,-81 59,-106 109,-106 109,-81 59,-81"/>
<text text-anchor="start" x="64" y="-90.2333" font-family="Helvetica,sans-Serif" font-size="14.00">Auth2</text>
<polygon fill="#fdefe3" stroke="#fdefe3" points="109,-81 109,-106 159,-106 159,-81 109,-81"/>
<polygon fill="none" stroke="#c00000" points="109,-81 109,-106 159,-106 159,-81 109,-81"/>
<text text-anchor="start" x="114" y="-90.2333" font-family="Helvetica,sans-Serif" font-size="14.00">Auth3</text>
</g>
<!-- Mapper&#45;&gt;Auths -->
<g id="edge5" class="edge"><title>Mapper:sw&#45;&gt;Auths:auth1</title>
<path fill="none" stroke="black" d="M49,-148C37.5237,-136.524 34.1339,-129.157 33.2662,-116.083"/>
<polygon fill="black" stroke="black" points="36.7628,-115.904 33,-106 29.7652,-116.089 36.7628,-115.904"/>
</g>
<!-- Mapper&#45;&gt;Auths -->
<g id="edge7" class="edge"><title>Mapper:s&#45;&gt;Auths:auth2</title>
<path fill="none" stroke="black" d="M84,-148C84,-133.271 84,-127.258 84,-116.207"/>
<polygon fill="black" stroke="black" points="87.5001,-116 84,-106 80.5001,-116 87.5001,-116"/>
</g>
<!-- Mapper&#45;&gt;Auths -->
<g id="edge9" class="edge"><title>Mapper:se&#45;&gt;Auths:auth3</title>
<path fill="none" stroke="black" d="M119,-148C130.388,-136.612 133.173,-129.088 133.817,-116.035"/>
<polygon fill="black" stroke="black" points="137.317,-116.062 134,-106 130.318,-115.934 137.317,-116.062"/>
</g>
<!-- Service -->
<g id="node10" class="node"><title>Service</title>
<polygon fill="#d1ebf1" stroke="#1f477d" points="131,-40 37,-40 37,-0 131,-0 131,-40"/>
<text text-anchor="middle" x="84" y="-23.4" font-family="Helvetica,sans-Serif" font-size="14.00">OpenStack</text>
<text text-anchor="middle" x="84" y="-7.4" font-family="Helvetica,sans-Serif" font-size="14.00">Service</text>
</g>
<!-- Auths&#45;&gt;Service -->
<g id="edge11" class="edge"><title>Auths:auth1&#45;&gt;Service</title>
<path fill="none" stroke="black" d="M33,-81C33,-68.2561 39.6326,-56.7707 48.1141,-47.2933"/>
<polygon fill="black" stroke="black" points="50.6575,-49.6992 55.221,-40.1376 45.6908,-44.7664 50.6575,-49.6992"/>
</g>
<!-- Auths&#45;&gt;Service -->
<g id="edge13" class="edge"><title>Auths:auth2&#45;&gt;Service</title>
<path fill="none" stroke="black" d="M84,-81C84,-70.9674 84,-60.0066 84,-50.1784"/>
<polygon fill="black" stroke="black" points="87.5001,-50.0559 84,-40.056 80.5001,-50.056 87.5001,-50.0559"/>
</g>
<!-- Auths&#45;&gt;Service -->
<g id="edge15" class="edge"><title>Auths:auth3&#45;&gt;Service</title>
<path fill="none" stroke="black" d="M134,-81C134,-68.4835 127.626,-57.1283 119.429,-47.7009"/>
<polygon fill="black" stroke="black" points="121.686,-45.0006 112.215,-40.2521 116.658,-49.8705 121.686,-45.0006"/>
</g>
</g>
</svg>
