<?xml version="1.0" encoding="UTF-8" standalone="no"?>
<!DOCTYPE svg PUBLIC "-//W3C//DTD SVG 1.1//EN"
 "http://www.w3.org/Graphics/SVG/1.1/DTD/svg11.dtd">
<!-- Generated by graphviz version 2.27.20101213.0545 (20101213.0545)
 -->
<!-- Title: Seperate Pages: 1 -->
<svg width="106pt" height="124pt"
 viewBox="0.00 0.00 106.00 124.00" xmlns="http://www.w3.org/2000/svg" xmlns:xlink="http://www.w3.org/1999/xlink">
<g id="graph1" class="graph" transform="scale(1 1) rotate(0) translate(4 120)">
<title>Seperate</title>
<polygon fill="white" stroke="white" points="-4,5 -4,-120 103,-120 103,5 -4,5"/>
<!-- AuthComp -->
<g id="node2" class="node"><title>AuthComp</title>
<polygon fill="#fdefe3" stroke="#c00000" points="98,-116 0,-116 0,-76 98,-76 98,-116"/>
<text text-anchor="middle" x="49" y="-99.4" font-family="Helvetica,sans-Serif" font-size="14.00">Auth</text>
<text text-anchor="middle" x="49" y="-83.4" font-family="Helvetica,sans-Serif" font-size="14.00">Component</text>
</g>
<!-- Service -->
<g id="node4" class="node"><title>Service</title>
<polygon fill="#d1ebf1" stroke="#1f477d" points="96,-40 2,-40 2,-0 96,-0 96,-40"/>
<text text-anchor="middle" x="49" y="-23.4" font-family="Helvetica,sans-Serif" font-size="14.00">OpenStack</text>
<text text-anchor="middle" x="49" y="-7.4" font-family="Helvetica,sans-Serif" font-size="14.00">Service</text>
</g>
<!-- AuthComp&#45;&gt;Service -->
<g id="edge3" class="edge"><title>AuthComp&#45;&gt;Service</title>
<path fill="none" stroke="black" d="M49,-75.6334C49,-67.8186 49,-58.7253 49,-50.183"/>
<polygon fill="black" stroke="black" points="52.5001,-50.1593 49,-40.1593 45.5001,-50.1593 52.5001,-50.1593"/>
</g>
</g>
</svg>
