<?xml version="1.0" encoding="UTF-8" standalone="no"?>
<!DOCTYPE svg PUBLIC "-//W3C//DTD SVG 1.1//EN"
 "http://www.w3.org/Graphics/SVG/1.1/DTD/svg11.dtd">
<!-- Generated by graphviz version 2.27.20101213.0545 (20101213.0545)
 -->
<!-- Title: DelegateRejectAuthBasic Pages: 1 -->
<svg width="670pt" height="113pt"
 viewBox="0.00 0.00 670.00 112.84" xmlns="http://www.w3.org/2000/svg" xmlns:xlink="http://www.w3.org/1999/xlink">
<g id="graph1" class="graph" transform="scale(1 1) rotate(0) translate(4 108.841)">
<title>DelegateRejectAuthBasic</title>
<polygon fill="white" stroke="white" points="-4,5 -4,-108.841 667,-108.841 667,5 -4,5"/>
<!-- Start -->
<!-- AuthComp -->
<g id="node4" class="node"><title>AuthComp</title>
<polygon fill="#fdefe3" stroke="#c00000" points="346,-72.8409 248,-72.8409 248,-32.8409 346,-32.8409 346,-72.8409"/>
<text text-anchor="middle" x="297" y="-56.2409" font-family="Helvetica,sans-Serif" font-size="14.00">Auth</text>
<text text-anchor="middle" x="297" y="-40.2409" font-family="Helvetica,sans-Serif" font-size="14.00">Component</text>
</g>
<!-- Start&#45;&gt;AuthComp -->
<g id="edge3" class="edge"><title>Start&#45;&gt;AuthComp</title>
<path fill="none" stroke="black" d="M54.3777,-61.3549C60.1429,-62.8044 66.2278,-64.0845 72,-64.8409 141.627,-73.9651 160.053,-71.0554 230,-64.8409 232.523,-64.6168 235.094,-64.346 237.686,-64.038"/>
<polygon fill="black" stroke="black" points="238.294,-67.4878 247.737,-62.6852 237.36,-60.5504 238.294,-67.4878"/>
<text text-anchor="middle" x="151" y="-72.2409" font-family="Times,serif" font-size="14.00">Authorization: Basic Yjpw</text>
</g>
<!-- AuthComp&#45;&gt;Start -->
<g id="edge5" class="edge"><title>AuthComp&#45;&gt;Start</title>
<path fill="none" stroke="black" d="M268.012,-32.6508C256.688,-25.9141 243.253,-19.2572 230,-15.8409 162.001,1.68741 138.106,7.84667 72,-15.8409 64.6685,-18.468 57.6762,-22.8621 51.4824,-27.7226"/>
<polygon fill="black" stroke="black" points="48.8781,-25.3457 43.5743,-34.5174 53.44,-30.655 48.8781,-25.3457"/>
<text text-anchor="middle" x="151" y="-48.2409" font-family="Times,serif" font-size="14.00">401 Unauthorized</text>
<text text-anchor="middle" x="151" y="-33.2409" font-family="Times,serif" font-size="14.00">WWW&#45;Authenticate: Basic</text>
<text text-anchor="middle" x="151" y="-18.2409" font-family="Times,serif" font-size="14.00">Realm=&quot;API Realm&quot;</text>
</g>
<!-- Service -->
<g id="node7" class="node"><title>Service</title>
<polygon fill="#d1ebf1" stroke="#1f477d" points="662,-72.8409 568,-72.8409 568,-32.8409 662,-32.8409 662,-72.8409"/>
<text text-anchor="middle" x="615" y="-56.2409" font-family="Helvetica,sans-Serif" font-size="14.00">OpenStack</text>
<text text-anchor="middle" x="615" y="-40.2409" font-family="Helvetica,sans-Serif" font-size="14.00">Service</text>
</g>
<!-- AuthComp&#45;&gt;Service -->
<g id="edge7" class="edge"><title>AuthComp&#45;&gt;Service</title>
<path fill="none" stroke="black" d="M346.009,-56.9214C352.065,-57.3007 358.172,-57.6238 364,-57.8409 446.609,-60.9191 467.394,-61.0134 550,-57.8409 552.523,-57.744 555.101,-57.626 557.704,-57.4913"/>
<polygon fill="black" stroke="black" points="558.03,-60.9783 567.807,-56.8985 557.62,-53.9903 558.03,-60.9783"/>
<text text-anchor="middle" x="457" y="-92.2409" font-family="Times,serif" font-size="14.00">Authorization: Basic dTpw</text>
<text text-anchor="middle" x="457" y="-77.2409" font-family="Times,serif" font-size="14.00">X&#45;Authorization: Proxy b</text>
<text text-anchor="middle" x="457" y="-62.2409" font-family="Times,serif" font-size="14.00">X&#45;Identity&#45;Status: Indeterminate</text>
</g>
<!-- Service&#45;&gt;AuthComp -->
<g id="edge9" class="edge"><title>Service&#45;&gt;AuthComp</title>
<path fill="none" stroke="black" d="M577.062,-32.7447C568.397,-29.0597 559.064,-25.7713 550,-23.8409 469.146,-6.62237 444.948,-7.07388 364,-23.8409 357.891,-25.1063 351.655,-26.957 345.566,-29.1213"/>
<polygon fill="black" stroke="black" points="344.234,-25.8836 336.158,-32.7413 346.748,-32.4166 344.234,-25.8836"/>
<text text-anchor="middle" x="457" y="-41.2409" font-family="Times,serif" font-size="14.00">401 Unauthorized</text>
<text text-anchor="middle" x="457" y="-26.2409" font-family="Times,serif" font-size="14.00">WWW&#45;Authenticate: Delegated</text>
</g>
</g>
</svg>
