<?xml version="1.0" encoding="UTF-8" standalone="no"?>
<!DOCTYPE svg PUBLIC "-//W3C//DTD SVG 1.1//EN"
 "http://www.w3.org/Graphics/SVG/1.1/DTD/svg11.dtd">
<!-- Generated by graphviz version 2.27.20101213.0545 (20101213.0545)
 -->
<!-- Title: Both Pages: 1 -->
<svg width="116pt" height="180pt"
 viewBox="0.00 0.00 116.00 180.00" xmlns="http://www.w3.org/2000/svg" xmlns:xlink="http://www.w3.org/1999/xlink">
<g id="graph1" class="graph" transform="scale(1 1) rotate(0) translate(4 176)">
<title>Both</title>
<polygon fill="white" stroke="white" points="-4,5 -4,-176 113,-176 113,5 -4,5"/>
<!-- AuthComp -->
<g id="node2" class="node"><title>AuthComp</title>
<polygon fill="#fdefe3" stroke="#c00000" points="104,-172 6,-172 6,-132 104,-132 104,-172"/>
<text text-anchor="middle" x="55" y="-155.4" font-family="Helvetica,sans-Serif" font-size="14.00">Auth</text>
<text text-anchor="middle" x="55" y="-139.4" font-family="Helvetica,sans-Serif" font-size="14.00">Component</text>
</g>
<!-- Together -->
<g id="node4" class="node"><title>Together</title>
<polygon fill="white" stroke="white" points="108,-95.5 0,-95.5 0,-0.5 108,-0.5 108,-95.5"/>
<polygon fill="white" stroke="white" points="8,-47 8,-91 101,-91 101,-47 8,-47"/>
<polygon fill="none" stroke="#c00000" points="8,-47 8,-91 101,-91 101,-47 8,-47"/>
<text text-anchor="start" x="38" y="-75.2333" font-family="Helvetica,sans-Serif" font-size="14.00">Auth</text>
<text text-anchor="start" x="13.5" y="-58.4333" font-family="Helvetica,sans-Serif" font-size="14.00">Component</text>
<polygon fill="#d1ebf1" stroke="#d1ebf1" points="8,-4 8,-47 101,-47 101,-4 8,-4"/>
<polygon fill="none" stroke="#1f477d" points="8,-4 8,-47 101,-47 101,-4 8,-4"/>
<text text-anchor="start" x="15.5" y="-31.7333" font-family="Helvetica,sans-Serif" font-size="14.00">OpenStack</text>
<text text-anchor="start" x="28" y="-14.9333" font-family="Helvetica,sans-Serif" font-size="14.00">Service</text>
</g>
<!-- AuthComp&#45;&gt;Together -->
<g id="edge3" class="edge"><title>AuthComp&#45;&gt;Together:OStack:n</title>
<path fill="none" stroke="black" d="M55,-131.871C55,-113.129 55,-84.1127 55,-57.1901"/>
<polygon fill="black" stroke="black" points="58.5001,-57 55,-47 51.5001,-57 58.5001,-57"/>
</g>
</g>
</svg>
