<?xml version="1.0" encoding="UTF-8" standalone="no"?>
<!DOCTYPE svg PUBLIC "-//W3C//DTD SVG 1.1//EN"
 "http://www.w3.org/Graphics/SVG/1.1/DTD/svg11.dtd">
<!-- Generated by graphviz version 2.27.20101213.0545 (20101213.0545)
 -->
<!-- Title: Handle305 Pages: 1 -->
<svg width="310pt" height="208pt"
 viewBox="0.00 0.00 310.00 208.00" xmlns="http://www.w3.org/2000/svg" xmlns:xlink="http://www.w3.org/1999/xlink">
<g id="graph1" class="graph" transform="scale(1 1) rotate(0) translate(4 204)">
<title>Handle305</title>
<polygon fill="white" stroke="white" points="-4,5 -4,-204 307,-204 307,5 -4,5"/>
<!-- AuthComp -->
<g id="node2" class="node"><title>AuthComp</title>
<polygon fill="#fdefe3" stroke="#c00000" points="98,-146 0,-146 0,-106 98,-106 98,-146"/>
<text text-anchor="middle" x="49" y="-129.4" font-family="Helvetica,sans-Serif" font-size="14.00">Auth</text>
<text text-anchor="middle" x="49" y="-113.4" font-family="Helvetica,sans-Serif" font-size="14.00">Component</text>
</g>
<!-- Service -->
<g id="node4" class="node"><title>Service</title>
<polygon fill="#d1ebf1" stroke="#1f477d" points="119,-40 25,-40 25,-0 119,-0 119,-40"/>
<text text-anchor="middle" x="72" y="-23.4" font-family="Helvetica,sans-Serif" font-size="14.00">OpenStack</text>
<text text-anchor="middle" x="72" y="-7.4" font-family="Helvetica,sans-Serif" font-size="14.00">Service</text>
</g>
<!-- AuthComp&#45;&gt;Service -->
<!-- Service&#45;&gt;AuthComp -->
<g id="edge5" class="edge"><title>Service:n&#45;&gt;AuthComp:n</title>
<path fill="none" stroke="black" d="M72,-40C72,-62.2222 76.6172,-67.8558 86,-88 90.0596,-96.7157 95.2138,-96.7977 98,-106 103.152,-123.015 110.312,-133.175 98,-146 92.6344,-151.589 70.1318,-155.75 57.5709,-153.773"/>
<polygon fill="black" stroke="black" points="59.2494,-150.684 49,-148 55.3388,-156.489 59.2494,-150.684"/>
<text text-anchor="middle" x="144" y="-75.4" font-family="Times,serif" font-size="14.00">305 Use Proxy</text>
<text text-anchor="middle" x="144" y="-60.4" font-family="Times,serif" font-size="14.00">To Redirect to Auth</text>
</g>
<!-- Start -->
<!-- Start&#45;&gt;Service -->
<g id="edge7" class="edge"><title>Start:sw&#45;&gt;Service</title>
<path fill="none" stroke="black" d="M216,-164C182.398,-130.398 232.934,-94.0727 202,-58 192.167,-46.5338 159.461,-37.0056 129.317,-30.3582"/>
<polygon fill="black" stroke="black" points="129.738,-26.8696 119.229,-28.2156 128.284,-33.7169 129.738,-26.8696"/>
<text text-anchor="middle" x="255.5" y="-128.4" font-family="Times,serif" font-size="14.00">Request</text>
<text text-anchor="middle" x="255.5" y="-113.4" font-family="Times,serif" font-size="14.00">Service Directly</text>
</g>
</g>
</svg>
