<?xml version="1.0" encoding="UTF-8" standalone="no"?>
<!DOCTYPE svg PUBLIC "-//W3C//DTD SVG 1.1//EN"
 "http://www.w3.org/Graphics/SVG/1.1/DTD/svg11.dtd">
<!-- Generated by graphviz version 2.27.20101213.0545 (20101213.0545)
 -->
<!-- Title: DelegateRejectAuthOAuth Pages: 1 -->
<svg width="722pt" height="128pt"
 viewBox="0.00 0.00 722.00 127.50" xmlns="http://www.w3.org/2000/svg" xmlns:xlink="http://www.w3.org/1999/xlink">
<g id="graph1" class="graph" transform="scale(1 1) rotate(0) translate(4 123.504)">
<title>DelegateRejectAuthOAuth</title>
<polygon fill="white" stroke="white" points="-4,5 -4,-123.504 719,-123.504 719,5 -4,5"/>
<!-- Start -->
<!-- AuthComp -->
<g id="node4" class="node"><title>AuthComp</title>
<polygon fill="#fdefe3" stroke="#c00000" points="398,-87.504 300,-87.504 300,-47.504 398,-47.504 398,-87.504"/>
<text text-anchor="middle" x="349" y="-70.904" font-family="Helvetica,sans-Serif" font-size="14.00">Auth</text>
<text text-anchor="middle" x="349" y="-54.904" font-family="Helvetica,sans-Serif" font-size="14.00">Component</text>
</g>
<!-- Start&#45;&gt;AuthComp -->
<g id="edge3" class="edge"><title>Start&#45;&gt;AuthComp</title>
<path fill="none" stroke="black" d="M54.4752,-81.8682C60.1286,-84.2034 66.1458,-86.2617 72,-87.504 163.3,-106.879 189.647,-100.994 282,-87.504 284.667,-87.1144 287.375,-86.642 290.098,-86.104"/>
<polygon fill="black" stroke="black" points="290.972,-89.4951 299.969,-83.9 289.446,-82.6633 290.972,-89.4951"/>
<text text-anchor="middle" x="177" y="-101.904" font-family="Times,serif" font-size="14.00">Authorization: OAuth 000&#45;999&#45;222</text>
</g>
<!-- AuthComp&#45;&gt;Start -->
<g id="edge5" class="edge"><title>AuthComp&#45;&gt;Start</title>
<path fill="none" stroke="black" d="M325.91,-47.4946C313.721,-38.2548 297.999,-28.2878 282,-23.504 192.578,3.23327 158.428,11.7282 72,-23.504 62.489,-27.3811 53.8955,-34.3434 46.8279,-41.6023"/>
<polygon fill="black" stroke="black" points="43.8515,-39.6795 39.7866,-49.4636 49.0657,-44.3499 43.8515,-39.6795"/>
<text text-anchor="middle" x="177" y="-70.904" font-family="Times,serif" font-size="14.00">401 Unauthorized</text>
<text text-anchor="middle" x="177" y="-55.904" font-family="Times,serif" font-size="14.00">WWW&#45;Authenticate: OAuth</text>
<text text-anchor="middle" x="177" y="-40.904" font-family="Times,serif" font-size="14.00">Realm=’API Realm’,</text>
<text text-anchor="middle" x="177" y="-25.904" font-family="Times,serif" font-size="14.00">Error=’invalid&#45;token’</text>
</g>
<!-- Service -->
<g id="node7" class="node"><title>Service</title>
<polygon fill="#d1ebf1" stroke="#1f477d" points="714,-87.504 620,-87.504 620,-47.504 714,-47.504 714,-87.504"/>
<text text-anchor="middle" x="667" y="-70.904" font-family="Helvetica,sans-Serif" font-size="14.00">OpenStack</text>
<text text-anchor="middle" x="667" y="-54.904" font-family="Helvetica,sans-Serif" font-size="14.00">Service</text>
</g>
<!-- AuthComp&#45;&gt;Service -->
<g id="edge7" class="edge"><title>AuthComp&#45;&gt;Service</title>
<path fill="none" stroke="black" d="M398.009,-71.5844C404.065,-71.9638 410.172,-72.2868 416,-72.504 498.609,-75.5822 519.394,-75.6765 602,-72.504 604.523,-72.4071 607.101,-72.2891 609.704,-72.1544"/>
<polygon fill="black" stroke="black" points="610.03,-75.6414 619.807,-71.5616 609.62,-68.6534 610.03,-75.6414"/>
<text text-anchor="middle" x="509" y="-106.904" font-family="Times,serif" font-size="14.00">Authorization: Basic dTpw</text>
<text text-anchor="middle" x="509" y="-91.904" font-family="Times,serif" font-size="14.00">X&#45;Authorization: Proxy</text>
<text text-anchor="middle" x="509" y="-76.904" font-family="Times,serif" font-size="14.00">X&#45;Identity&#45;Status: Indeterminate</text>
</g>
<!-- Service&#45;&gt;AuthComp -->
<g id="edge9" class="edge"><title>Service&#45;&gt;AuthComp</title>
<path fill="none" stroke="black" d="M629.062,-47.4077C620.397,-43.7227 611.064,-40.4344 602,-38.504 521.146,-21.2854 496.948,-21.7369 416,-38.504 409.891,-39.7693 403.655,-41.62 397.566,-43.7843"/>
<polygon fill="black" stroke="black" points="396.234,-40.5466 388.158,-47.4043 398.748,-47.0797 396.234,-40.5466"/>
<text text-anchor="middle" x="509" y="-55.904" font-family="Times,serif" font-size="14.00">401 Unauthorized</text>
<text text-anchor="middle" x="509" y="-40.904" font-family="Times,serif" font-size="14.00">WWW&#45;Authenticate: Delegated</text>
</g>
</g>
</svg>
