<?xml version="1.0" encoding="UTF-8" standalone="no"?>
<!DOCTYPE svg PUBLIC "-//W3C//DTD SVG 1.1//EN"
 "http://www.w3.org/Graphics/SVG/1.1/DTD/svg11.dtd">
<!-- Generated by graphviz version 2.27.20101213.0545 (20101213.0545)
 -->
<!-- Title: StandardRejectAuth Pages: 1 -->
<svg width="590pt" height="84pt"
 viewBox="0.00 0.00 590.00 84.11" xmlns="http://www.w3.org/2000/svg" xmlns:xlink="http://www.w3.org/1999/xlink">
<g id="graph1" class="graph" transform="scale(1 1) rotate(0) translate(4 80.1142)">
<title>StandardRejectAuth</title>
<polygon fill="white" stroke="white" points="-4,5 -4,-80.1142 587,-80.1142 587,5 -4,5"/>
<!-- Start -->
<!-- AuthComp -->
<g id="node4" class="node"><title>AuthComp</title>
<polygon fill="#fdefe3" stroke="#c00000" points="470,-72.1142 372,-72.1142 372,-32.1142 470,-32.1142 470,-72.1142"/>
<text text-anchor="middle" x="421" y="-55.5142" font-family="Helvetica,sans-Serif" font-size="14.00">Auth</text>
<text text-anchor="middle" x="421" y="-39.5142" font-family="Helvetica,sans-Serif" font-size="14.00">Component</text>
</g>
<!-- Start&#45;&gt;AuthComp -->
<g id="edge3" class="edge"><title>Start&#45;&gt;AuthComp</title>
<path fill="none" stroke="black" d="M54.087,-55.6146C59.9818,-56.239 66.1921,-56.7925 72,-57.1142 197.142,-64.0451 228.754,-61.7811 354,-57.1142 356.55,-57.0192 359.153,-56.9039 361.782,-56.7725"/>
<polygon fill="black" stroke="black" points="362.204,-60.2543 371.991,-56.1946 361.809,-53.2655 362.204,-60.2543"/>
<text text-anchor="middle" x="213" y="-63.5142" font-family="Times,serif" font-size="14.00">Authorization: Basic Yjpw</text>
</g>
<!-- AuthComp&#45;&gt;Start -->
<g id="edge5" class="edge"><title>AuthComp&#45;&gt;Start</title>
<path fill="none" stroke="black" d="M381.842,-32.0145C372.913,-28.3297 363.309,-25.0423 354,-23.1142 231.272,2.30687 192.234,12.2721 72,-23.1142 67.3413,-24.4853 62.7097,-26.5048 58.2883,-28.8508"/>
<polygon fill="black" stroke="black" points="56.3831,-25.9114 49.5663,-34.022 59.9531,-31.9327 56.3831,-25.9114"/>
<text text-anchor="middle" x="213" y="-40.5142" font-family="Times,serif" font-size="14.00">401 Unauthorized</text>
<text text-anchor="middle" x="213" y="-25.5142" font-family="Times,serif" font-size="14.00">WWW&#45;Authenticate: Basic Realm=&quot;API Realm&quot;</text>
</g>
<!-- Service -->
<g id="node8" class="node"><title>Service</title>
<polygon fill="#d1ebf1" stroke="#1f477d" points="582,-72.1142 488,-72.1142 488,-32.1142 582,-32.1142 582,-72.1142"/>
<text text-anchor="middle" x="535" y="-55.5142" font-family="Helvetica,sans-Serif" font-size="14.00">OpenStack</text>
<text text-anchor="middle" x="535" y="-39.5142" font-family="Helvetica,sans-Serif" font-size="14.00">Service</text>
</g>
</g>
</svg>
