<?xml version="1.0" encoding="UTF-8" standalone="no"?>
<!DOCTYPE svg PUBLIC "-//W3C//DTD SVG 1.1//EN"
 "http://www.w3.org/Graphics/SVG/1.1/DTD/svg11.dtd">
<!-- Generated by graphviz version 2.27.20101213.0545 (20101213.0545)
 -->
<!-- Title: AuthCompDelegate Pages: 1 -->
<svg width="588pt" height="104pt"
 viewBox="0.00 0.00 588.00 104.00" xmlns="http://www.w3.org/2000/svg" xmlns:xlink="http://www.w3.org/1999/xlink">
<g id="graph1" class="graph" transform="scale(1 1) rotate(0) translate(4 100)">
<title>AuthCompDelegate</title>
<polygon fill="white" stroke="white" points="-4,5 -4,-100 585,-100 585,5 -4,5"/>
<!-- AuthComp -->
<g id="node2" class="node"><title>AuthComp</title>
<polygon fill="#fdefe3" stroke="#c00000" points="338,-65 240,-65 240,-25 338,-25 338,-65"/>
<text text-anchor="middle" x="289" y="-48.4" font-family="Helvetica,sans-Serif" font-size="14.00">Auth</text>
<text text-anchor="middle" x="289" y="-32.4" font-family="Helvetica,sans-Serif" font-size="14.00">Component</text>
</g>
<!-- Reject -->
<!-- AuthComp&#45;&gt;Reject -->
<g id="edge3" class="edge"><title>AuthComp&#45;&gt;Reject</title>
<path fill="none" stroke="black" d="M239.6,-50.1899C191.406,-55.2531 118.917,-62.8686 73.5875,-67.6309"/>
<polygon fill="black" stroke="black" points="73.0928,-64.1635 63.5132,-68.6893 73.8242,-71.1252 73.0928,-64.1635"/>
<text text-anchor="middle" x="152" y="-83.4" font-family="Times,serif" font-size="14.00">Reject Requests</text>
<text text-anchor="middle" x="152" y="-68.4" font-family="Times,serif" font-size="14.00">Indicated by the Service</text>
</g>
<!-- Service -->
<g id="node6" class="node"><title>Service</title>
<polygon fill="#d1ebf1" stroke="#1f477d" points="580,-65 486,-65 486,-25 580,-25 580,-65"/>
<text text-anchor="middle" x="533" y="-48.4" font-family="Helvetica,sans-Serif" font-size="14.00">OpenStack</text>
<text text-anchor="middle" x="533" y="-32.4" font-family="Helvetica,sans-Serif" font-size="14.00">Service</text>
</g>
<!-- AuthComp&#45;&gt;Service -->
<g id="edge5" class="edge"><title>AuthComp&#45;&gt;Service</title>
<path fill="none" stroke="black" d="M338.009,-49.0804C344.065,-49.4598 350.172,-49.7828 356,-50 405.743,-51.8535 418.259,-51.9103 468,-50 470.523,-49.9031 473.101,-49.7851 475.704,-49.6504"/>
<polygon fill="black" stroke="black" points="476.03,-53.1374 485.807,-49.0576 475.62,-46.1494 476.03,-53.1374"/>
<text text-anchor="middle" x="412" y="-68.4" font-family="Times,serif" font-size="14.00">Forward Requests</text>
<text text-anchor="middle" x="412" y="-53.4" font-family="Times,serif" font-size="14.00">with Identiy Status</text>
</g>
<!-- Service&#45;&gt;AuthComp -->
<g id="edge7" class="edge"><title>Service&#45;&gt;AuthComp</title>
<path fill="none" stroke="black" d="M495.062,-24.9037C486.397,-21.2187 477.064,-17.9304 468,-16 419.314,-5.63183 404.743,-5.9037 356,-16 349.891,-17.2653 343.655,-19.116 337.566,-21.2803"/>
<polygon fill="black" stroke="black" points="336.234,-18.0426 328.158,-24.9003 338.748,-24.5757 336.234,-18.0426"/>
<text text-anchor="middle" x="412" y="-33.4" font-family="Times,serif" font-size="14.00">Send Response OR</text>
<text text-anchor="middle" x="412" y="-18.4" font-family="Times,serif" font-size="14.00">Reject Message</text>
</g>
<!-- Start -->
<!-- Start&#45;&gt;AuthComp -->
<g id="edge9" class="edge"><title>Start&#45;&gt;AuthComp</title>
<path fill="none" stroke="black" d="M59.0178,-20.8384C99.2135,-25.0613 175.782,-33.1055 229.492,-38.7482"/>
<polygon fill="black" stroke="black" points="229.265,-42.2435 239.576,-39.8076 229.997,-35.2818 229.265,-42.2435"/>
</g>
</g>
</svg>
