<?xml version="1.0" encoding="UTF-8" standalone="no"?>
<!DOCTYPE svg PUBLIC "-//W3C//DTD SVG 1.1//EN"
 "http://www.w3.org/Graphics/SVG/1.1/DTD/svg11.dtd">
<!-- Generated by graphviz version 2.27.20101213.0545 (20101213.0545)
 -->
<!-- Title: DelegateUnimplemented Pages: 1 -->
<svg width="670pt" height="102pt"
 viewBox="0.00 0.00 670.00 101.64" xmlns="http://www.w3.org/2000/svg" xmlns:xlink="http://www.w3.org/1999/xlink">
<g id="graph1" class="graph" transform="scale(1 1) rotate(0) translate(4 97.6355)">
<title>DelegateUnimplemented</title>
<polygon fill="white" stroke="white" points="-4,5 -4,-97.6355 667,-97.6355 667,5 -4,5"/>
<!-- Start -->
<!-- AuthComp -->
<g id="node4" class="node"><title>AuthComp</title>
<polygon fill="#fdefe3" stroke="#c00000" points="348,-61.6355 250,-61.6355 250,-21.6355 348,-21.6355 348,-61.6355"/>
<text text-anchor="middle" x="299" y="-45.0355" font-family="Helvetica,sans-Serif" font-size="14.00">Auth</text>
<text text-anchor="middle" x="299" y="-29.0355" font-family="Helvetica,sans-Serif" font-size="14.00">Component</text>
</g>
<!-- Start&#45;&gt;AuthComp -->
<g id="edge3" class="edge"><title>Start&#45;&gt;AuthComp</title>
<path fill="none" stroke="black" d="M54.0748,-41.6355C97.1107,-41.6355 182.142,-41.6355 239.791,-41.6355"/>
<polygon fill="black" stroke="black" points="239.864,-45.1356 249.863,-41.6355 239.863,-38.1356 239.864,-45.1356"/>
<text text-anchor="middle" x="152" y="-44.0355" font-family="Times,serif" font-size="14.00">Authorization: Basic VTpQ</text>
</g>
<!-- AuthComp&#45;&gt;Start -->
<g id="edge5" class="edge"><title>AuthComp&#45;&gt;Start</title>
<path fill="none" stroke="black" d="M249.934,-26.0577C243.944,-24.6511 237.868,-23.4514 232,-22.6355 161.567,-12.8417 141.697,-8.52478 72,-22.6355 69.1948,-23.2034 66.3471,-23.9518 63.5169,-24.8233"/>
<polygon fill="black" stroke="black" points="62.3066,-21.5388 54.0489,-28.1766 64.6436,-28.1372 62.3066,-21.5388"/>
<text text-anchor="middle" x="152" y="-25.0355" font-family="Times,serif" font-size="14.00">500 Internal Error</text>
</g>
<!-- Service -->
<g id="node7" class="node"><title>Service</title>
<polygon fill="#d1ebf1" stroke="#1f477d" points="662,-61.6355 568,-61.6355 568,-21.6355 662,-21.6355 662,-61.6355"/>
<text text-anchor="middle" x="615" y="-45.0355" font-family="Helvetica,sans-Serif" font-size="14.00">OpenStack</text>
<text text-anchor="middle" x="615" y="-29.0355" font-family="Helvetica,sans-Serif" font-size="14.00">Service</text>
</g>
<!-- AuthComp&#45;&gt;Service -->
<g id="edge7" class="edge"><title>AuthComp&#45;&gt;Service</title>
<path fill="none" stroke="black" d="M348.009,-45.7159C354.065,-46.0953 360.172,-46.4183 366,-46.6355 447.721,-49.6805 468.282,-49.7738 550,-46.6355 552.523,-46.5386 555.101,-46.4206 557.704,-46.2859"/>
<polygon fill="black" stroke="black" points="558.03,-49.7729 567.807,-45.6931 557.62,-42.7849 558.03,-49.7729"/>
<text text-anchor="middle" x="458" y="-81.0355" font-family="Times,serif" font-size="14.00">Authorization: Basic dTpw</text>
<text text-anchor="middle" x="458" y="-66.0355" font-family="Times,serif" font-size="14.00">X&#45;Authorization: Proxy U</text>
<text text-anchor="middle" x="458" y="-51.0355" font-family="Times,serif" font-size="14.00">X&#45;Identity&#45;Status: Confirmed</text>
</g>
<!-- Service&#45;&gt;AuthComp -->
<g id="edge9" class="edge"><title>Service&#45;&gt;AuthComp</title>
<path fill="none" stroke="black" d="M577.062,-21.5392C568.397,-17.8542 559.064,-14.5658 550,-12.6355 470.016,4.39794 446.078,3.95128 366,-12.6355 359.891,-13.9008 353.655,-15.7515 347.566,-17.9158"/>
<polygon fill="black" stroke="black" points="346.234,-14.6781 338.158,-21.5358 348.748,-21.2112 346.234,-14.6781"/>
<text text-anchor="middle" x="458" y="-30.0355" font-family="Times,serif" font-size="14.00">501 Unimplemented</text>
<text text-anchor="middle" x="458" y="-15.0355" font-family="Times,serif" font-size="14.00">WWW&#45;Authenticate: Delegated</text>
</g>
</g>
</svg>
