<?xml version="1.0" encoding="UTF-8" standalone="no"?>
<!DOCTYPE svg PUBLIC "-//W3C//DTD SVG 1.1//EN"
 "http://www.w3.org/Graphics/SVG/1.1/DTD/svg11.dtd">
<!-- Generated by graphviz version 2.27.20101213.0545 (20101213.0545)
 -->
<!-- Title: ProxyAuth Pages: 1 -->
<svg width="644pt" height="74pt"
 viewBox="0.00 0.00 644.00 73.70" xmlns="http://www.w3.org/2000/svg" xmlns:xlink="http://www.w3.org/1999/xlink">
<g id="graph1" class="graph" transform="scale(1 1) rotate(0) translate(4 69.7025)">
<title>ProxyAuth</title>
<polygon fill="white" stroke="white" points="-4,5 -4,-69.7025 641,-69.7025 641,5 -4,5"/>
<!-- Start -->
<!-- AuthComp -->
<g id="node4" class="node"><title>AuthComp</title>
<polygon fill="#fdefe3" stroke="#c00000" points="348,-55.7025 250,-55.7025 250,-15.7025 348,-15.7025 348,-55.7025"/>
<text text-anchor="middle" x="299" y="-39.1025" font-family="Helvetica,sans-Serif" font-size="14.00">Auth</text>
<text text-anchor="middle" x="299" y="-23.1025" font-family="Helvetica,sans-Serif" font-size="14.00">Component</text>
</g>
<!-- Start&#45;&gt;AuthComp -->
<g id="edge3" class="edge"><title>Start&#45;&gt;AuthComp</title>
<path fill="none" stroke="black" d="M54.0748,-35.7025C97.1107,-35.7025 182.142,-35.7025 239.791,-35.7025"/>
<polygon fill="black" stroke="black" points="239.864,-39.2026 249.863,-35.7025 239.863,-32.2026 239.864,-39.2026"/>
<text text-anchor="middle" x="152" y="-38.1025" font-family="Times,serif" font-size="14.00">Authorization: Basic VTpQ</text>
</g>
<!-- AuthComp&#45;&gt;Start -->
<g id="edge9" class="edge"><title>AuthComp:w&#45;&gt;Start</title>
<path fill="none" stroke="black" d="M250,-35.7025C238.368,-35.7025 242.686,-21.2988 232,-16.7025 166.676,11.3956 141.697,-2.59182 72,-16.7025 69.1948,-17.2705 66.3471,-18.0189 63.5169,-18.8903"/>
<polygon fill="black" stroke="black" points="62.3066,-15.6059 54.0489,-22.2437 64.6436,-22.2043 62.3066,-15.6059"/>
<text text-anchor="middle" x="152" y="-19.1025" font-family="Times,serif" font-size="14.00">500 Internal Error</text>
</g>
<!-- Service -->
<g id="node6" class="node"><title>Service</title>
<polygon fill="#d1ebf1" stroke="#1f477d" points="636,-55.7025 542,-55.7025 542,-15.7025 636,-15.7025 636,-55.7025"/>
<text text-anchor="middle" x="589" y="-39.1025" font-family="Helvetica,sans-Serif" font-size="14.00">OpenStack</text>
<text text-anchor="middle" x="589" y="-23.1025" font-family="Helvetica,sans-Serif" font-size="14.00">Service</text>
</g>
<!-- AuthComp&#45;&gt;Service -->
<g id="edge5" class="edge"><title>AuthComp&#45;&gt;Service</title>
<path fill="none" stroke="black" d="M348.195,-35.7025C399.052,-35.7025 478.372,-35.7025 531.947,-35.7025"/>
<polygon fill="black" stroke="black" points="531.971,-39.2026 541.971,-35.7025 531.971,-32.2026 531.971,-39.2026"/>
<text text-anchor="middle" x="445" y="-53.1025" font-family="Times,serif" font-size="14.00">Authorization: Basic dTpw</text>
<text text-anchor="middle" x="445" y="-38.1025" font-family="Times,serif" font-size="14.00">X&#45;Authorization: Proxy U</text>
</g>
<!-- Service&#45;&gt;AuthComp -->
<g id="edge7" class="edge"><title>Service:w&#45;&gt;AuthComp</title>
<path fill="none" stroke="black" d="M542,-35.7025C530.368,-35.7025 534.686,-21.2988 524,-16.7025 459.492,11.0444 435.553,-7.03121 366,-16.7025 363.341,-17.0723 360.639,-17.5208 357.922,-18.0316"/>
<polygon fill="black" stroke="black" points="357.121,-14.6237 348.066,-20.1248 358.575,-21.471 357.121,-14.6237"/>
<text text-anchor="middle" x="445" y="-19.1025" font-family="Times,serif" font-size="14.00">403 Forbidden</text>
</g>
</g>
</svg>
