<?xml version="1.0" encoding="UTF-8" standalone="no"?>
<!DOCTYPE svg PUBLIC "-//W3C//DTD SVG 1.1//EN"
 "http://www.w3.org/Graphics/SVG/1.1/DTD/svg11.dtd">
<!-- Generated by graphviz version 2.27.20101213.0545 (20101213.0545)
 -->
<!-- Title: AuthComp Pages: 1 -->
<svg width="510pt" height="118pt"
 viewBox="0.00 0.00 510.00 118.00" xmlns="http://www.w3.org/2000/svg" xmlns:xlink="http://www.w3.org/1999/xlink">
<g id="graph1" class="graph" transform="scale(1 1) rotate(0) translate(4 114)">
<title>AuthComp</title>
<polygon fill="white" stroke="white" points="-4,5 -4,-114 507,-114 507,5 -4,5"/>
<!-- AuthComp -->
<g id="node2" class="node"><title>AuthComp</title>
<polygon fill="#fdefe3" stroke="#c00000" points="292,-65 194,-65 194,-25 292,-25 292,-65"/>
<text text-anchor="middle" x="243" y="-48.4" font-family="Helvetica,sans-Serif" font-size="14.00">Auth</text>
<text text-anchor="middle" x="243" y="-32.4" font-family="Helvetica,sans-Serif" font-size="14.00">Component</text>
</g>
<!-- Reject -->
<!-- AuthComp&#45;&gt;Reject -->
<g id="edge3" class="edge"><title>AuthComp&#45;&gt;Reject</title>
<path fill="none" stroke="black" d="M193.933,-51.2787C157.514,-55.939 108.38,-62.2263 73.8172,-66.649"/>
<polygon fill="black" stroke="black" points="73.0637,-63.2168 63.5888,-67.9578 73.9522,-70.1602 73.0637,-63.2168"/>
<text text-anchor="middle" x="129" y="-97.4" font-family="Times,serif" font-size="14.00">Reject</text>
<text text-anchor="middle" x="129" y="-82.4" font-family="Times,serif" font-size="14.00">Unauthenticated</text>
<text text-anchor="middle" x="129" y="-67.4" font-family="Times,serif" font-size="14.00">Requests</text>
</g>
<!-- Service -->
<g id="node6" class="node"><title>Service</title>
<polygon fill="#d1ebf1" stroke="#1f477d" points="502,-65 408,-65 408,-25 502,-25 502,-65"/>
<text text-anchor="middle" x="455" y="-48.4" font-family="Helvetica,sans-Serif" font-size="14.00">OpenStack</text>
<text text-anchor="middle" x="455" y="-32.4" font-family="Helvetica,sans-Serif" font-size="14.00">Service</text>
</g>
<!-- AuthComp&#45;&gt;Service -->
<g id="edge5" class="edge"><title>AuthComp&#45;&gt;Service</title>
<path fill="none" stroke="black" d="M292.17,-45C323.626,-45 364.563,-45 397.52,-45"/>
<polygon fill="black" stroke="black" points="397.917,-48.5001 407.917,-45 397.917,-41.5001 397.917,-48.5001"/>
<text text-anchor="middle" x="350" y="-77.4" font-family="Times,serif" font-size="14.00">Forward</text>
<text text-anchor="middle" x="350" y="-62.4" font-family="Times,serif" font-size="14.00">Authenticated</text>
<text text-anchor="middle" x="350" y="-47.4" font-family="Times,serif" font-size="14.00">Requests</text>
</g>
<!-- Start -->
<!-- Start&#45;&gt;AuthComp -->
<g id="edge7" class="edge"><title>Start&#45;&gt;AuthComp</title>
<path fill="none" stroke="black" d="M59.1526,-21.4745C90.4482,-25.4792 142.816,-32.1802 183.673,-37.4084"/>
<polygon fill="black" stroke="black" points="183.43,-40.9057 193.793,-38.7034 184.318,-33.9623 183.43,-40.9057"/>
</g>
</g>
</svg>
