<?xml version="1.0" encoding="UTF-8" standalone="no"?>
<!-- Created with Inkscape (http://www.inkscape.org/) -->

<svg
   xmlns:dc="http://purl.org/dc/elements/1.1/"
   xmlns:cc="http://creativecommons.org/ns#"
   xmlns:rdf="http://www.w3.org/1999/02/22-rdf-syntax-ns#"
   xmlns:svg="http://www.w3.org/2000/svg"
   xmlns="http://www.w3.org/2000/svg"
   xmlns:sodipodi="http://sodipodi.sourceforge.net/DTD/sodipodi-0.dtd"
   xmlns:inkscape="http://www.inkscape.org/namespaces/inkscape"
   width="183.71901"
   height="100.41289"
   id="svg2"
   version="1.1"
   inkscape:version="0.48.0 r9654"
   sodipodi:docname="authComp.svg">
  <defs
     id="defs4" />
  <sodipodi:namedview
     id="base"
     pagecolor="#ffffff"
     bordercolor="#666666"
     borderopacity="1.0"
     inkscape:pageopacity="0.0"
     inkscape:pageshadow="2"
     inkscape:zoom="0.98901497"
     inkscape:cx="69.71099"
     inkscape:cy="-12.532713"
     inkscape:document-units="px"
     inkscape:current-layer="layer1"
     showgrid="false"
     fit-margin-top="0"
     fit-margin-left="0"
     fit-margin-right="0"
     fit-margin-bottom="0"
     inkscape:window-width="912"
     inkscape:window-height="842"
     inkscape:window-x="66"
     inkscape:window-y="87"
     inkscape:window-maximized="0" />
  <metadata
     id="metadata7">
    <rdf:RDF>
      <cc:Work
         rdf:about="">
        <dc:format>image/svg+xml</dc:format>
        <dc:type
           rdf:resource="http://purl.org/dc/dcmitype/StillImage" />
        <dc:title></dc:title>
      </cc:Work>
    </rdf:RDF>
  </metadata>
  <g
     inkscape:label="Layer 1"
     inkscape:groupmode="layer"
     id="layer1"
     transform="translate(-305.28902,-419.41658)">
    <g
       id="1"
       transform="translate(304.10174,415.42322)">
      <path
         d="m 117.05,14.8 0,28.8 67.2,0 0,-28.8 -67.2,0 z"
         style="fill:#fdefe3;fill-opacity:1;fill-rule:evenodd;stroke:none"
         id="2"
         inkscape:connector-curvature="0" />
      <path
         d="m 117.05,43.6 67.2,0 0,-28.8 -67.2,0 0,28.8 z"
         style="fill:none;stroke:#c00000;stroke-width:1.29999995px;stroke-linecap:round;stroke-linejoin:round;stroke-opacity:1;stroke-dasharray:none"
         id="3"
         inkscape:connector-curvature="0" />
      <text
         style="font-size:9.60000038px;font-style:normal;font-weight:bold;text-align:start;text-anchor:start;fill:#000000;font-family:Arial"
         y="26.4"
         x="140"
         xml:space="preserve"
         id="4">Auth</text>
      <text
         style="font-size:9.60000038px;font-style:normal;font-weight:bold;text-align:start;text-anchor:start;fill:#000000;font-family:Arial"
         y="37.599998"
         x="124"
         xml:space="preserve"
         id="5">Component</text>
      <path
         d="m 117.05,72.4 0,28.8 67.2,0 0,-28.8 -67.2,0 z"
         style="fill:#d1ebf1;fill-opacity:1;fill-rule:evenodd;stroke:none"
         id="6"
         inkscape:connector-curvature="0" />
      <path
         d="m 117.05,101.2 67.2,0 0,-28.8 -67.2,0 0,28.8 z"
         style="fill:none;stroke:#1f477d;stroke-width:1.29999995px;stroke-linecap:round;stroke-linejoin:round;stroke-opacity:1;stroke-dasharray:none"
         id="7"
         inkscape:connector-curvature="0" />
      <text
         style="font-size:9.60000038px;font-style:normal;font-weight:bold;text-align:start;text-anchor:start;fill:#000000;font-family:Arial"
         y="84"
         x="125.6"
         xml:space="preserve"
         id="8">OpenStack</text>
      <text
         style="font-size:9.60000038px;font-style:normal;font-weight:bold;text-align:start;text-anchor:start;fill:#000000;font-family:Arial"
         y="95.199997"
         x="133.60001"
         xml:space="preserve"
         id="9">Service</text>
      <path
         d="m 150.65,43.6 0,19.3"
         style="fill:none;stroke:#000000;stroke-width:0.75px;stroke-linecap:round;stroke-linejoin:round;stroke-opacity:1;stroke-dasharray:none"
         id="10"
         inkscape:connector-curvature="0" />
      <path
         d="m 154.1,62.05 -3.45,10.35 -3.45,-10.35 6.9,0 z"
         style="fill:#000000;fill-opacity:1;fill-rule:evenodd;stroke:none"
         id="11"
         inkscape:connector-curvature="0" />
      <text
         style="font-size:8.80000019px;font-style:italic;font-weight:normal;text-align:start;text-anchor:start;fill:#1f477d;font-family:Arial"
         y="10.4"
         x="131.2"
         xml:space="preserve"
         id="12">Option </text>
      <text
         style="font-size:8.80000019px;font-style:italic;font-weight:normal;text-align:start;text-anchor:start;fill:#1f477d;font-family:Arial"
         y="10.4"
         x="158.39999"
         xml:space="preserve"
         id="13">(</text>
      <text
         style="font-size:8.80000019px;font-style:italic;font-weight:normal;text-align:start;text-anchor:start;fill:#1f477d;font-family:Arial"
         y="10.4"
         x="161.60001"
         xml:space="preserve"
         id="14">b</text>
      <text
         style="font-size:8.80000019px;font-style:italic;font-weight:normal;text-align:start;text-anchor:start;fill:#1f477d;font-family:Arial"
         y="10.4"
         x="166.39999"
         xml:space="preserve"
         id="15">)</text>
      <path
         d="m 1.85,14.8 0,28.8 67.2,0 0,-28.8 -67.2,0 z"
         style="fill:#fdefe3;fill-opacity:1;fill-rule:evenodd;stroke:none"
         id="16"
         inkscape:connector-curvature="0" />
      <path
         d="m 1.85,43.6 67.2,0 0,-28.8 -67.2,0 0,28.8 z"
         style="fill:none;stroke:#c00000;stroke-width:1.29999995px;stroke-linecap:round;stroke-linejoin:round;stroke-opacity:1;stroke-dasharray:none"
         id="17"
         inkscape:connector-curvature="0" />
      <text
         style="font-size:9.60000038px;font-style:normal;font-weight:bold;text-align:start;text-anchor:start;fill:#000000;font-family:Arial"
         y="26.4"
         x="24.799999"
         xml:space="preserve"
         id="18">Auth</text>
      <text
         style="font-size:9.60000038px;font-style:normal;font-weight:bold;text-align:start;text-anchor:start;fill:#000000;font-family:Arial"
         y="37.599998"
         x="8.8000002"
         xml:space="preserve"
         id="19">Component</text>
      <path
         d="m 1.85,44.8 0,28.8 67.2,0 0,-28.8 -67.2,0 z"
         style="fill:#d1ebf1;fill-opacity:1;fill-rule:evenodd;stroke:none"
         id="20"
         inkscape:connector-curvature="0" />
      <path
         d="m 1.85,73.6 67.2,0 0,-28.8 -67.2,0 0,28.8 z"
         style="fill:none;stroke:#1f477d;stroke-width:1.29999995px;stroke-linecap:round;stroke-linejoin:round;stroke-opacity:1;stroke-dasharray:none"
         id="21"
         inkscape:connector-curvature="0" />
      <text
         style="font-size:9.60000038px;font-style:normal;font-weight:bold;text-align:start;text-anchor:start;fill:#000000;font-family:Arial"
         y="56"
         x="10.4"
         xml:space="preserve"
         id="22">OpenStack</text>
      <text
         style="font-size:9.60000038px;font-style:normal;font-weight:bold;text-align:start;text-anchor:start;fill:#000000;font-family:Arial"
         y="68"
         x="18.4"
         xml:space="preserve"
         id="23">Service</text>
      <text
         style="font-size:8.80000019px;font-style:italic;font-weight:normal;text-align:start;text-anchor:start;fill:#1f477d;font-family:Arial"
         y="10.4"
         x="13.6"
         xml:space="preserve"
         id="24">Option </text>
      <text
         style="font-size:8.80000019px;font-style:italic;font-weight:normal;text-align:start;text-anchor:start;fill:#1f477d;font-family:Arial"
         y="10.4"
         x="41.599998"
         xml:space="preserve"
         id="25">(</text>
      <text
         style="font-size:8.80000019px;font-style:italic;font-weight:normal;text-align:start;text-anchor:start;fill:#1f477d;font-family:Arial"
         y="10.4"
         x="44"
         xml:space="preserve"
         id="26">a</text>
      <text
         style="font-size:8.80000019px;font-style:italic;font-weight:normal;text-align:start;text-anchor:start;fill:#1f477d;font-family:Arial"
         y="10.4"
         x="48.799999"
         xml:space="preserve"
         id="27">)</text>
      <path
         d="m 93.45,5.2 0,5.6 c 0,0.25 -0.15,0.4 -0.4,0.4 -0.2,0 -0.4,-0.15 -0.4,-0.4 l 0,-5.6 c 0,-0.2 0.2,-0.4 0.4,-0.4 0.25,0 0.4,0.2 0.4,0.4 z m 0,9.6 0,5.6 c 0,0.25 -0.15,0.4 -0.4,0.4 -0.2,0 -0.4,-0.15 -0.4,-0.4 l 0,-5.6 c 0,-0.2 0.2,-0.4 0.4,-0.4 0.25,0 0.4,0.2 0.4,0.4 z m 0,9.6 0,5.6 c 0,0.25 -0.15,0.4 -0.4,0.4 -0.2,0 -0.4,-0.15 -0.4,-0.4 l 0,-5.6 c 0,-0.2 0.2,-0.4 0.4,-0.4 0.25,0 0.4,0.2 0.4,0.4 z m 0,9.6 0,5.6 c 0,0.25 -0.15,0.4 -0.4,0.4 -0.2,0 -0.4,-0.15 -0.4,-0.4 l 0,-5.6 c 0,-0.2 0.2,-0.4 0.4,-0.4 0.25,0 0.4,0.2 0.4,0.4 z m 0,9.6 0,5.6 c 0,0.25 -0.15,0.4 -0.4,0.4 -0.2,0 -0.4,-0.15 -0.4,-0.4 l 0,-5.6 c 0,-0.2 0.2,-0.4 0.4,-0.4 0.25,0 0.4,0.2 0.4,0.4 z m 0,9.6 0,5.6 c 0,0.25 -0.15,0.4 -0.4,0.4 -0.2,0 -0.4,-0.15 -0.4,-0.4 l 0,-5.6 c 0,-0.2 0.2,-0.4 0.4,-0.4 0.25,0 0.4,0.2 0.4,0.4 z m 0,9.6 0,5.6 c 0,0.25 -0.15,0.4 -0.4,0.4 -0.2,0 -0.4,-0.15 -0.4,-0.4 l 0,-5.6 c 0,-0.2 0.2,-0.4 0.4,-0.4 0.25,0 0.4,0.2 0.4,0.4 z m 0,9.6 0,5.6 c 0,0.25 -0.15,0.4 -0.4,0.4 -0.2,0 -0.4,-0.15 -0.4,-0.4 l 0,-5.6 c 0,-0.2 0.2,-0.4 0.4,-0.4 0.25,0 0.4,0.2 0.4,0.4 z m 0,9.6 0,5.6 c 0,0.25 -0.15,0.4 -0.4,0.4 -0.2,0 -0.4,-0.15 -0.4,-0.4 l 0,-5.6 c 0,-0.2 0.2,-0.4 0.4,-0.4 0.25,0 0.4,0.2 0.4,0.4 z m 0,9.6 0,5.6 c 0,0.25 -0.15,0.4 -0.4,0.4 -0.2,0 -0.4,-0.15 -0.4,-0.4 l 0,-5.6 c 0,-0.2 0.2,-0.4 0.4,-0.4 0.25,0 0.4,0.2 0.4,0.4 z m 0,9.6 0,2.4 c 0,0.25 -0.15,0.4 -0.4,0.4 -0.2,0 -0.4,-0.15 -0.4,-0.4 l 0,-2.4 c 0,-0.2 0.2,-0.4 0.4,-0.4 0.25,0 0.4,0.2 0.4,0.4 z"
         style="fill:#1f477d;fill-opacity:1;fill-rule:nonzero;stroke:#1f477d;stroke-width:0.80000001px;stroke-linecap:butt;stroke-linejoin:bevel;stroke-opacity:1;stroke-dasharray:none"
         id="28"
         inkscape:connector-curvature="0" />
    </g>
  </g>
</svg>
